<svg width="80" height="79" viewBox="0 0 80 79" fill="none" xmlns="http://www.w3.org/2000/svg">
<path d="M46.333 17.8047L40.8055 32.5383L41.7974 35.1763L46.333 23.0807L55.1945 46.7131H57.1736L46.333 17.8047Z" fill="white"/>
<path d="M32.6239 20.5847V20.5894L31.6343 23.2227L27.0988 35.3183L26.1116 37.9563L22.824 46.7131H24.8054L27.0988 40.5942L27.9649 38.2846H36.2327V36.7409H28.5446L32.6239 25.8653V25.863L33.6134 23.2227L33.6669 23.0807L42.5285 46.7131H44.5076L33.6669 17.8047L32.6239 20.5847Z" fill="white"/>
<path d="M79.0063 78.5737H0.993713V0.563477H79.0063V78.5737ZM2.38838 77.179H77.6093V1.95814H2.38838V77.179Z" fill="white"/>
<path d="M21.1499 56.501C21.569 56.806 21.8717 57.2251 22.0557 57.756H21.6948C21.5411 57.3369 21.2826 56.9993 20.9194 56.7455C20.5562 56.4917 20.1045 56.366 19.569 56.366C19.1592 56.366 18.789 56.4637 18.4584 56.6616C18.1278 56.8596 17.867 57.1413 17.6761 57.5092C17.4852 57.877 17.3874 58.3101 17.3874 58.806C17.3874 59.2973 17.4828 59.728 17.6761 60.0959C17.867 60.4638 18.1301 60.7478 18.4584 60.9434C18.789 61.1413 19.1592 61.2391 19.569 61.2391C20.1069 61.2391 20.5562 61.1134 20.9194 60.8596C21.2826 60.6058 21.5411 60.2729 21.6948 59.8584H22.0557C21.8717 60.3916 21.569 60.8084 21.1499 61.1111C20.7308 61.4137 20.2023 61.5651 19.569 61.5651C19.0777 61.5651 18.6377 61.4487 18.2512 61.2158C17.8647 60.983 17.5643 60.657 17.3501 60.2379C17.1359 59.8188 17.0265 59.3415 17.0265 58.8107C17.0265 58.2798 17.1336 57.8025 17.3501 57.3834C17.5643 56.9643 17.867 56.636 18.2512 56.4009C18.6377 56.1657 19.0777 56.047 19.569 56.047C20.2023 56.0423 20.7308 56.196 21.1499 56.501Z" fill="white"/>
<path d="M29.2339 60.1055H26.6704L26.1395 61.5118H25.7554L27.7601 56.2451H28.1442L30.1326 61.5118H29.7554L29.2339 60.1055ZM29.1268 59.8214L27.9533 56.6665L26.7705 59.8214H29.1268Z" fill="white"/>
<path d="M34.3794 59.1598V61.509H34.0349V56.0957H35.525C36.1234 56.0957 36.5681 56.2307 36.8614 56.5032C37.1525 56.7732 37.2992 57.1528 37.2992 57.6394C37.2992 58.1353 37.1478 58.5125 36.8451 58.7709C36.5424 59.0294 36.1024 59.1598 35.525 59.1598H34.3794ZM36.9429 57.6394C36.9429 57.2343 36.8312 56.9269 36.6053 56.7174C36.3795 56.5078 36.0116 56.403 35.4994 56.403H34.3794V58.8524H35.4994C36.4633 58.8524 36.9429 58.4496 36.9429 57.6394Z" fill="white"/>
<path d="M41.6205 56.0957V61.509H41.2759V56.0957H41.6205Z" fill="white"/>
<path d="M48.9221 56.0957V56.3867H47.3645V61.509H47.0106V56.3867H45.4599V56.0957H48.9221Z" fill="white"/>
<path d="M55.8093 60.1055H53.2458L52.7149 61.5118H52.3307L54.3354 56.2451H54.7196L56.708 61.5118H56.3308L55.8093 60.1055ZM55.7022 59.8214L54.5287 56.6665L53.3459 59.8214H55.7022Z" fill="white"/>
<path d="M60.9525 61.225H62.9712V61.509H60.6056V56.0957H60.9502V61.225H60.9525Z" fill="white"/>
</svg>
