<?xml version="1.0" encoding="utf-8"?>
<!-- Generator: Adobe Illustrator 26.3.1, SVG Export Plug-In . SVG Version: 6.00 Build 0)  -->
<svg version="1.1" xmlns="http://www.w3.org/2000/svg" xmlns:xlink="http://www.w3.org/1999/xlink" x="0px" y="0px"
	 viewBox="0 0 425.2 425.2" style="enable-background:new 0 0 425.2 425.2;" xml:space="preserve">
<style type="text/css">
	.st0{fill:#142444;}
	.st1{fill:url(#SVGID_1_);}
	.st2{fill:url(#SVGID_00000127012108522411201690000013716654520460809905_);}
	.st3{fill:url(#SVGID_00000012467899001323510750000000458727270866615451_);}
	.st4{fill:url(#SVGID_00000086654306313718438600000015277654176527368620_);}
	.st5{fill:url(#SVGID_00000173840818562004467710000018310932503884947084_);}
	.st6{fill:url(#SVGID_00000073713725854291980220000006830999619337953943_);}
	.st7{fill:url(#SVGID_00000018949108097134956140000014356958381926227633_);}
	.st8{fill:url(#SVGID_00000011033038444031473320000006347254336204091040_);}
	.st9{fill:url(#SVGID_00000091725013201808908080000008445092366288679041_);}
	.st10{fill:url(#SVGID_00000079443856285146824640000009485201848660525462_);}
	.st11{fill:url(#SVGID_00000128449583233045504990000007844867868093728406_);}
	.st12{fill:url(#SVGID_00000008829147061517004030000006058004603486756742_);}
	.st13{fill:url(#SVGID_00000176740345861764472720000008738501558176453760_);}
	.st14{fill:url(#SVGID_00000168114073851384866550000013015897870585521851_);}
	.st15{fill:url(#SVGID_00000096740029568092594470000005810613905243315592_);}
	.st16{fill:url(#SVGID_00000096018959235218995400000009761887160372274595_);}
	.st17{fill:url(#SVGID_00000009587401303060966840000009099369946803684790_);}
	.st18{fill:url(#SVGID_00000078737169085857220940000000920361561062796969_);}
	.st19{fill:url(#SVGID_00000093894823915912032030000007797101726608799927_);}
	.st20{fill:url(#SVGID_00000103943798484706976000000010979956204728859559_);}
	.st21{fill:#FFFFFF;}
</style>
<g id="bg">
</g>
<g id="logo">
	<g>
		<linearGradient id="SVGID_1_" gradientUnits="userSpaceOnUse" x1="251.2128" y1="-2734.3694" x2="251.2128" y2="3223.5325">
			<stop  offset="2.663895e-07" style="stop-color:#F9B843"/>
			<stop  offset="0.5369" style="stop-color:#FBC871"/>
			<stop  offset="0.8274" style="stop-color:#F5A744"/>
		</linearGradient>
		<polygon class="st1" points="239.8,119.42 216.06,182.7 220.32,194.03 239.8,142.08 277.86,243.58 286.36,243.58 		"/>
		
			<linearGradient id="SVGID_00000023260779015183845330000002025133932739259549_" gradientUnits="userSpaceOnUse" x1="185.3939" y1="-2734.3694" x2="185.3939" y2="3223.5325">
			<stop  offset="2.663895e-07" style="stop-color:#F9B843"/>
			<stop  offset="0.5369" style="stop-color:#FBC871"/>
			<stop  offset="0.8274" style="stop-color:#F5A744"/>
		</linearGradient>
		<polygon style="fill:url(#SVGID_00000023260779015183845330000002025133932739259549_);" points="180.92,131.36 180.92,131.38 
			176.67,142.69 157.19,194.64 152.95,205.97 138.83,243.58 147.34,243.58 157.19,217.3 160.91,207.38 196.42,207.38 196.42,200.75 
			163.4,200.75 180.92,154.04 180.92,154.03 185.17,142.69 185.4,142.08 223.46,243.58 231.96,243.58 185.4,119.42 		"/>
	</g>
	
		<linearGradient id="SVGID_00000052821787774361951450000013214403102124575935_" gradientUnits="userSpaceOnUse" x1="212.5984" y1="38.4121" x2="212.5984" y2="374.9652">
		<stop  offset="0" style="stop-color:#F9B843"/>
		<stop  offset="0.5369" style="stop-color:#FBC871"/>
		<stop  offset="0.8274" style="stop-color:#F5A744"/>
	</linearGradient>
	<path style="fill:url(#SVGID_00000052821787774361951450000013214403102124575935_);" d="M380.13,380.42H45.07V45.37h335.06V380.42
		z M51.06,374.43h323.07V51.36H51.06V374.43z"/>
	<g>
		<g>
			
				<linearGradient id="SVGID_00000052787898457587684100000001682305137597119872_" gradientUnits="userSpaceOnUse" x1="124.7298" y1="139.8861" x2="124.7298" y2="372.4184">
				<stop  offset="0" style="stop-color:#F9B843"/>
				<stop  offset="0.5369" style="stop-color:#FBC871"/>
				<stop  offset="0.8274" style="stop-color:#F5A744"/>
			</linearGradient>
			<path style="fill:url(#SVGID_00000052787898457587684100000001682305137597119872_);" d="M131.64,285.62
				c1.8,1.31,3.1,3.11,3.89,5.39h-1.55c-0.66-1.8-1.77-3.25-3.33-4.34c-1.56-1.09-3.5-1.63-5.8-1.63c-1.76,0-3.35,0.42-4.77,1.27
				c-1.42,0.85-2.54,2.06-3.36,3.64c-0.82,1.58-1.24,3.44-1.24,5.57c0,2.11,0.41,3.96,1.24,5.54c0.82,1.58,1.95,2.8,3.36,3.64
				c1.42,0.85,3.01,1.27,4.77,1.27c2.31,0,4.24-0.54,5.8-1.63c1.56-1.09,2.67-2.52,3.33-4.3h1.55c-0.79,2.29-2.09,4.08-3.89,5.38
				c-1.8,1.3-4.07,1.95-6.79,1.95c-2.11,0-4-0.5-5.66-1.5c-1.66-1-2.95-2.4-3.87-4.2c-0.92-1.8-1.39-3.85-1.39-6.13
				s0.46-4.33,1.39-6.13c0.92-1.8,2.22-3.21,3.87-4.22c1.66-1.01,3.55-1.52,5.66-1.52C127.57,283.65,129.84,284.31,131.64,285.62z"
				/>
			
				<linearGradient id="SVGID_00000103228002412988250210000012394153594184667532_" gradientUnits="userSpaceOnUse" x1="160.8249" y1="139.8861" x2="160.8249" y2="372.4184">
				<stop  offset="0" style="stop-color:#F9B843"/>
				<stop  offset="0.5369" style="stop-color:#FBC871"/>
				<stop  offset="0.8274" style="stop-color:#F5A744"/>
			</linearGradient>
			<path style="fill:url(#SVGID_00000103228002412988250210000012394153594184667532_);" d="M166.36,301.1h-11.01l-2.28,6.04h-1.65
				l8.61-22.62h1.65l8.54,22.62h-1.62L166.36,301.1z M165.9,299.88l-5.04-13.55l-5.08,13.55H165.9z"/>
			
				<linearGradient id="SVGID_00000178927321868753768940000004365948916489599131_" gradientUnits="userSpaceOnUse" x1="193.9835" y1="139.8861" x2="193.9835" y2="372.4184">
				<stop  offset="0" style="stop-color:#F9B843"/>
				<stop  offset="0.5369" style="stop-color:#FBC871"/>
				<stop  offset="0.8274" style="stop-color:#F5A744"/>
			</linearGradient>
			<path style="fill:url(#SVGID_00000178927321868753768940000004365948916489599131_);" d="M188.46,297.04v10.09h-1.48v-23.25h6.4
				c2.57,0,4.48,0.58,5.74,1.75c1.25,1.16,1.88,2.79,1.88,4.88c0,2.13-0.65,3.75-1.95,4.86c-1.3,1.11-3.19,1.67-5.67,1.67H188.46z
				 M199.47,290.51c0-1.74-0.48-3.06-1.45-3.96c-0.97-0.9-2.55-1.35-4.75-1.35h-4.81v10.52h4.81
				C197.41,295.72,199.47,293.99,199.47,290.51z"/>
			
				<linearGradient id="SVGID_00000078022507423600609600000012902463231085472647_" gradientUnits="userSpaceOnUse" x1="218.8147" y1="139.8861" x2="218.8147" y2="372.4184">
				<stop  offset="0" style="stop-color:#F9B843"/>
				<stop  offset="0.5369" style="stop-color:#FBC871"/>
				<stop  offset="0.8274" style="stop-color:#F5A744"/>
			</linearGradient>
			<path style="fill:url(#SVGID_00000078022507423600609600000012902463231085472647_);" d="M219.56,283.88v23.25h-1.48v-23.25
				H219.56z"/>
			
				<linearGradient id="SVGID_00000075848114028592487250000006957428710358545854_" gradientUnits="userSpaceOnUse" x1="243.4823" y1="139.8861" x2="243.4823" y2="372.4184">
				<stop  offset="0" style="stop-color:#F9B843"/>
				<stop  offset="0.5369" style="stop-color:#FBC871"/>
				<stop  offset="0.8274" style="stop-color:#F5A744"/>
			</linearGradient>
			<path style="fill:url(#SVGID_00000075848114028592487250000006957428710358545854_);" d="M250.92,283.88v1.25h-6.69v22h-1.52v-22
				h-6.66v-1.25H250.92z"/>
			
				<linearGradient id="SVGID_00000178204779627668136800000018064663394321056684_" gradientUnits="userSpaceOnUse" x1="274.9594" y1="139.8861" x2="274.9594" y2="372.4184">
				<stop  offset="0" style="stop-color:#F9B843"/>
				<stop  offset="0.5369" style="stop-color:#FBC871"/>
				<stop  offset="0.8274" style="stop-color:#F5A744"/>
			</linearGradient>
			<path style="fill:url(#SVGID_00000178204779627668136800000018064663394321056684_);" d="M280.5,301.1h-11.01l-2.28,6.04h-1.65
				l8.61-22.62h1.65l8.54,22.62h-1.62L280.5,301.1z M280.04,299.88l-5.04-13.55l-5.08,13.55H280.04z"/>
			
				<linearGradient id="SVGID_00000160161864808938117040000010240848634346889641_" gradientUnits="userSpaceOnUse" x1="306.1889" y1="139.8861" x2="306.1889" y2="372.4184">
				<stop  offset="0" style="stop-color:#F9B843"/>
				<stop  offset="0.5369" style="stop-color:#FBC871"/>
				<stop  offset="0.8274" style="stop-color:#F5A744"/>
			</linearGradient>
			<path style="fill:url(#SVGID_00000160161864808938117040000010240848634346889641_);" d="M302.59,305.91h8.67v1.22h-10.16v-23.25
				h1.48V305.91z"/>
		</g>
	</g>
</g>
</svg>
